
<svg height="20" viewBox="0 0 20 20" width="20" xmlns="http://www.w3.org/2000/svg"><path d="m16.9672178 13.1501193h-5.7762031l6.0098454-5.571774c.2253004-.20818348.3491399-.484825.3491399-.77946905 0-.29464404-.1238395-.57128556-.3491399-.77946904l-6.1448654-5.697275c-.4640105-.42950961-1.21822791-.42950961-1.681507 0l-8.57611409 7.95132052c-.22453414.20816734-.34837361.484825-.34837361.7794529s.12383947.57128557.34839103.77877478l3.98367422 3.69398929c.0175371.0159036.09846553.0809226.18202364.147314.06229417.0490993.12606862.0996032.15032799.1196563.07030515.0635497.15861762.0946303.2491244.1078537.07875153.0591419.17493566.0995063.2841812.0995063h11.31951272c.2531822 0 .458368-.1902455.458368-.4249565-.0000174-.2346787-.2052032-.4249242-.4583854-.4249242zm-6.8802918-.1770545c-.0550668.0508269-.0872327.1125683-.10844441.1770545h-4.26573076l.00000044.0000003c-.05085168-.0416628-.10208423-.0829244-.1536919-.1237803l-4.11277308-3.79569153c-.05109619-.04703261-.07944814-.11066307-.07944814-.17774872 0-.06777991.02835195-.13141037.07983127-.17913725l2.50252907-2.32003326 6.53456531 6.05136776-.3968401.367962zm-5.48977532-7.02000054 5.42561772-5.02992213c.1066855-.09890895.2790089-.09752042.385677 0l6.1448654 5.69730729c.0514793.04772688.0798139.11100212.0798139.17844298s-.028352.13071611-.0798139.17844298l-5.4213162 5.02672532z" fill="#606060" stroke="#606060" stroke-width=".9" transform="translate(1 3)"/></svg>