
<svg height="48" viewBox="0 0 48 48" width="48" xmlns="http://www.w3.org/2000/svg"><g fill="none"><circle cx="24" cy="24" fill="#25344b" r="24"/><path d="m32.4842036 13.3888689h-16.9211134c-1.1698256 0-2.1269556.95713-2.1269556 2.1269556v16.9211135c0 1.1698255.95713 2.1269556 2.1269556 2.1269556h16.9211134c1.1698256 0 2.1269556-.9571301 2.1269556-2.1269556v-16.9211135c0-1.1698256-.95713-2.1269556-2.1269556-2.1269556z" fill="#4e6caa"/><path d="m28.0294133 24.9524175-.0212696.0141797c-.0259961.016543-.0519922.0307227-.0779883.0449024l-4.9558066 2.861937c-.191426.1394337-.4277544.2221487-.6853523.2221487-.6333601 0-1.1485561-.5010163-1.1485561-1.1178334 0-.0307227.0023633-.0614454.0047266-.0921681v-5.7522332c-.0023633-.0307227-.0047266-.0614454-.0047266-.0945314 0-.6168171.5081061-1.1178333 1.1343764-1.1178333.2481448 0 .47502.0779884.6617195.2103323l4.8919979 2.8241244c.4159379.1677931.7113484.574278.7113484 1.0516613-.0023632.3946685-.2032424.7420712-.5104693.9453136z" fill="#fff"/></g></svg>