
<svg height="48" viewBox="0 0 48 48" width="48" xmlns="http://www.w3.org/2000/svg"><g fill="none" fill-rule="evenodd"><circle cx="24" cy="24" fill="#25344b" fill-rule="nonzero" r="24"/><g transform="translate(13 13)"><path d="m19.7901786 0h-17.58035717c-1.21540179 0-2.20982143.99441964-2.20982143 2.20982143v17.58035717c0 1.2154018.99441964 2.2098214 2.20982143 2.2098214h17.58035717c1.2154018 0 2.2098214-.9944196 2.2098214-2.2098214v-17.58035717c0-1.21540179-.9944196-2.20982143-2.2098214-2.20982143z" fill="#fff" fill-rule="nonzero"/><path d="m3.85 15.372207c0 1.2378824.99884903 2.2165465 2.1975317 2.2165465 1.19857627 0 2.16890804-.9786641 2.1974253-2.2165465v-6.102579l7.1346359-.80606547v3.73938767c-.3710436-.2879492-.827639-.4289333-1.3128581-.4289333-1.2272 0-2.1974253 1.0075018-2.1974253 2.2164398 0 1.2378825.998849 2.2165466 2.1974253 2.2165466.5707708 0 1.1415417-.2303807 1.5411026-.6332533.4280782-.4030861.6564291-.9499332.6564291-1.5544557v-8.31912546c0-.43192379-.3710437-.77722784-.7706045-.748497h-.0570346l-7.33446953.86363395c-.39945448 0-.74198085.34530406-.74198085.77722784l-.0110664 7.02378137c-.39956089-.2879492-.81646624-.3887741-1.30168532-.3887741-1.22698713 0-2.1974253.9068904-2.1974253 2.1446661z" fill="#25344b"/></g></g></svg>