<?xml version="1.0" encoding="UTF-8"?>
<svg width="20px" height="20px" viewBox="0 0 20 20" version="1.1" xmlns="http://www.w3.org/2000/svg" xmlns:xlink="http://www.w3.org/1999/xlink">
    <!-- Generator: Sketch 52.5 (67469) - http://www.bohemiancoding.com/sketch -->
    <title>未命名</title>
    <desc>Created with Sketch.</desc>
    <g id="Page-1" stroke="none" stroke-width="1" fill="none" fill-rule="evenodd">
        <g id="屏幕共享">
            <g id="共享白板-copy">
                <rect id="Rectangle-2" x="0" y="0" width="20" height="20"></rect>
                <path d="M1,1 L19,1 C19.5522847,1 20,1.44771525 20,2 L20,15 C20,15.5522847 19.5522847,16 19,16 L1,16 C0.44771525,16 6.76353751e-17,15.5522847 0,15 L0,2 C-6.76353751e-17,1.44771525 0.44771525,1 1,1 Z M10.4759586,6.09832786 C10.2251978,5.88088752 10.0206939,6.03938319 10.0206939,6.42317849 L10.0206939,7.44619599 L9.97930615,7.44619599 C8.51369446,7.44619599 6.02069385,9.26824125 6,10.8885648 C6,11.018243 6.09738284,11.0549197 6.19111382,10.8885648 C6.66463786,9.97950694 8.65489957,9.50794958 9.66889836,9.50794958 L10.0206939,9.50794958 L10.0206939,10.587292 C10.0206939,10.9095229 10.2422398,11.129583 10.4942179,10.9121426 L12.8119294,8.91064358 C13.0626902,8.69451312 13.0626902,8.33953522 12.8119294,8.12209488 L10.4759586,6.09832786 Z" id="合并形状" fill="#FFFFFF"></path>
                <rect id="Rectangle-5" fill="#FFFFFF" x="3" y="18" width="14" height="2" rx="0.5"></rect>
            </g>
        </g>
    </g>
</svg>