<?xml version="1.0" encoding="UTF-8"?>
<svg width="29px" height="17px" viewBox="0 0 29 17" version="1.1" xmlns="http://www.w3.org/2000/svg" xmlns:xlink="http://www.w3.org/1999/xlink">
    <!-- Generator: Sketch 52.5 (67469) - http://www.bohemiancoding.com/sketch -->
    <title>未命名</title>
    <desc>Created with Sketch.</desc>
    <g id="Page-1" stroke="none" stroke-width="1" fill="none" fill-rule="evenodd">
        <g id="视频静音" fill="#FFFFFF">
            <g id="Group-Copy">
                <path d="M2.4,0.365591398 L18.0705882,0.365591398 C19.3960716,0.365591398 20.4705882,1.440108 20.4705882,2.7655914 L20.4705882,14.4172043 C20.4705882,15.7426877 19.3960716,16.8172043 18.0705882,16.8172043 L2.4,16.8172043 C1.0745166,16.8172043 -2.8176431e-16,15.7426877 -4.4408921e-16,14.4172043 L0,2.7655914 C-1.623249e-16,1.440108 1.0745166,0.365591398 2.4,0.365591398 Z M5.11764706,7.2925863 C6.05977987,7.2925863 6.82352941,6.51725599 6.82352941,5.56083758 C6.82352941,4.60441917 6.05977987,3.82908885 5.11764706,3.82908885 C4.17551425,3.82908885 3.41176471,4.60441917 3.41176471,5.56083758 C3.41176471,6.51725599 4.17551425,7.2925863 5.11764706,7.2925863 Z M23.7473572,5.94048384 L26.5179455,4.10978863 C27.2551949,3.62264336 28.2477629,3.82539283 28.7349082,4.56264224 C28.907816,4.82432235 29,5.13105111 29,5.44469679 L29,11.7416807 C29,12.6253363 28.2836556,13.3416807 27.4,13.3416807 C27.0866027,13.3416807 26.7801058,13.2496425 26.5185542,13.0769908 L23.7479659,11.2481098 C23.2993447,10.9519724 23.0294118,10.4503481 23.0294118,9.91279962 L23.0294118,7.27539199 C23.0294118,6.73810209 23.2990868,6.23668321 23.7473572,5.94048384 Z" id="Combined-Shape"></path>
            </g>
        </g>
    </g>
</svg>