<?xml version="1.0" encoding="UTF-8"?>
<svg width="26px" height="9px" viewBox="0 0 26 9" version="1.1" xmlns="http://www.w3.org/2000/svg" xmlns:xlink="http://www.w3.org/1999/xlink">
    <!-- Generator: Sketch 52.5 (67469) - http://www.bohemiancoding.com/sketch -->
    <title>未命名</title>
    <desc>Created with Sketch.</desc>
    <g id="Page-1" stroke="none" stroke-width="1" fill="none" fill-rule="evenodd">
        <path d="M2.20570797,9 C2.1843494,8.99319472 2.16333906,8.98270735 2.14154519,8.98011017 C1.58662857,8.91327377 1.14732683,8.62130422 0.819345045,8.11130268 C0.583733286,7.74493531 0.418494542,7.33737462 0.29524745,6.91002272 C0.184972208,6.5275791 0.0975355493,6.13662066 0,5.74941006 L0,5.37347584 C0.0488983637,5.18010067 0.0820389758,4.97932846 0.14974217,4.79479686 C0.317273478,4.33834993 0.611273076,3.98861768 0.93649798,3.67110368 C1.37928209,3.23882042 1.87523048,2.89421679 2.37582204,2.55727321 C3.19827221,2.00374418 4.04234212,1.50229034 4.95016854,1.14769249 C6.22306404,0.650413869 7.53856062,0.387177726 8.87199143,0.22309485 C9.89737706,0.0969505914 10.9264482,0.0340921544 11.9576088,0.0138735672 C11.9863384,0.0133146794 12.0149229,0.00479985973 12.0435364,0 L13.917403,0 C13.9525169,0.00519436875 13.9874858,0.0128215431 14.0227448,0.0152543487 C14.8919749,0.0757786074 15.7624238,0.119207475 16.6301739,0.200048948 C17.6963614,0.29939947 18.751057,0.496193719 19.7921714,0.777018389 C21.2553497,1.17169179 22.6581668,1.722262 23.8788557,2.76485071 C24.3460165,3.16383083 24.8355225,3.52901468 25.2461526,4.00660072 C25.5294439,4.33611438 25.7767217,4.6946902 25.9111414,5.13644167 C25.9478224,5.25689843 25.970748,5.38277968 26,5.5061295 L26,5.88203084 C25.9347925,6.1620665 25.8727192,6.4431213 25.803623,6.72190767 C25.6887046,7.18539002 25.5786615,7.65133804 25.3702703,8.07655301 C25.151345,8.52333448 24.8239436,8.80902476 24.3809563,8.91301076 C24.2133089,8.95239591 24.042005,8.97159535 23.8723843,8.99996712 L23.5015113,8.99996712 C23.4632051,8.99408236 23.4250151,8.98625794 23.3865348,8.9826416 C23.18891,8.96423118 22.9902985,8.95558486 22.7937473,8.9277391 C21.6257004,8.76204531 20.4930576,8.42523324 19.3785521,8.00508113 C18.797953,7.78622725 18.4301851,7.33125973 18.2950398,6.65898348 C18.2320088,6.34561182 18.2017992,6.01955011 18.1910909,5.69782801 C18.1704578,5.07769271 17.9294774,4.62032525 17.4526241,4.32779681 C17.282481,4.22338343 17.1001786,4.13744621 16.9154385,4.07202347 C16.3016988,3.854649 15.6657879,3.79317134 15.0279907,3.78534691 C13.8638904,3.77104596 12.699587,3.77515543 11.5353997,3.77453079 C10.8813514,3.77420203 10.2283189,3.79826708 9.58341184,3.93743014 C9.18566645,4.02323585 8.79929683,4.14826233 8.45607965,4.40383843 C8.11750564,4.65599544 7.90267205,5.002999 7.85319329,5.46325952 C7.82727861,5.70414015 7.8287296,5.94863712 7.8083577,6.19047115 C7.73490859,7.06233608 7.36656026,7.68631784 6.62667143,8.00827008 C5.52827198,8.48628351 4.38933187,8.7680287 3.22531866,8.93339373 C3.04844298,8.9585108 2.87092886,8.97790749 2.69370494,8.99996712 L2.20570797,9 Z" id="Shape" fill="#FFFFFF" fill-rule="nonzero"></path>
    </g>
</svg>