<?xml version="1.0" encoding="UTF-8"?>
<svg width="20px" height="23px" viewBox="0 0 20 23" version="1.1" xmlns="http://www.w3.org/2000/svg" xmlns:xlink="http://www.w3.org/1999/xlink">
    <!-- Generator: Sketch 52.5 (67469) - http://www.bohemiancoding.com/sketch -->
    <title>未命名</title>
    <desc>Created with Sketch.</desc>
    <g id="Page-1" stroke="none" stroke-width="1" fill="none" fill-rule="evenodd">
        <g id="分组-4" fill="#FFFFFF">
            <path d="M2,4 L18,4 C18.5522847,4 19,4.44771525 19,5 L19,16 C19,16.5522847 18.5522847,17 18,17 L2,17 C1.44771525,17 1,16.5522847 1,16 L1,5 C1,4.44771525 1.44771525,4 2,4 Z" id="Rectangle-3"></path>
            <path d="M0.5,18 L19.5,18 C19.7761424,18 20,18.2238576 20,18.5 L20,19.5 C20,19.7761424 19.7761424,20 19.5,20 L0.5,20 C0.223857625,20 3.38176876e-17,19.7761424 0,19.5 L0,18.5 C-3.38176876e-17,18.2238576 0.223857625,18 0.5,18 Z M7.2,1 L12.8,1 C12.9104569,1 13,1.08954305 13,1.2 L13,2.8 C13,2.91045695 12.9104569,3 12.8,3 L7.2,3 C7.08954305,3 7,2.91045695 7,2.8 L7,1.2 C7,1.08954305 7.08954305,1 7.2,1 Z" id="Rectangle-10"></path>
            <g id="分组-2" transform="translate(4.000000, 18.000000)">
                <path d="M1.47487373,-0.0251262658 L3.47487373,-0.0251262658 L3.47487373,3.15088004 C3.47487373,3.20889712 3.44968044,3.26405511 3.40583009,3.30204363 L1.80583009,4.68815894 C1.72234474,4.76048414 1.59603534,4.75143705 1.52371014,4.6679517 C1.49221201,4.63159325 1.47487373,4.58510011 1.47487373,4.53699534 L1.47487373,-0.0251262658 Z" id="矩形" transform="translate(2.474874, 2.474874) rotate(45.000000) translate(-2.474874, -2.474874) "></path>
                <path d="M8.47487373,-0.0251262658 L10.4748737,-0.0251262658 L10.4748737,3.11683767 C10.4748737,3.1741583 10.4502794,3.22872383 10.4073321,3.26668683 L8.80733214,4.68099879 C8.72457274,4.75415355 8.59817934,4.74636745 8.52502458,4.66360805 C8.49270999,4.6270508 8.47487373,4.57994169 8.47487373,4.53114964 L8.47487373,-0.0251262658 Z" id="矩形-copy" transform="translate(9.474874, 2.474874) scale(-1, 1) rotate(45.000000) translate(-9.474874, -2.474874) "></path>
            </g>
            <rect id="矩形" x="9" y="0" width="2" height="2" rx="0.2"></rect>
        </g>
    </g>
</svg>