<svg height="48" viewBox="0 0 48 48" width="48" xmlns="http://www.w3.org/2000/svg"><g fill="none"><circle cx="24" cy="24" fill="#24334b" r="24"/><path d="m25.9438663 18.6394124c-.0059232-.0708498-.0029727-.1446664 0-.2184609.0118242-.4959487-.1567766-.9387601-.4673571-1.3432018-.4998794-.6583055-1.1742828-1.1424532-1.8989781-1.579353-1.3665542-.8265738-2.8632639-1.4229078-4.4161665-1.8952325-.6181884-.1889255-1.4020492-.5697432-1.410923-1.1365417-.0088737-.5077718.0680394-.9712403.4022905-1.3815714.8311579-1.0273223 1.3665543-2.23768066 1.7007833-3.56316996.2958058-1.18082285.3697461-2.37050192.1449524-3.57200405-.2248159-1.21624775-.7453932-2.24653687-1.6682611-2.97863685-.8341305-.664217-1.7392509-.97124024-2.6917126-.97124024-.3933946 0-.7956629.05313736-1.2038544.15350055-.7276458.18009137-1.3429058.50480492-1.8457357.96829554.4348127.19187015.8489053.44575603 1.2452726.76163549 1.0707707.85314246 1.7599489 2.06644551 2.0468809 3.60742895.2395907 1.2900644.1863483 2.64210025-.1597271 4.01778221-.3963673 1.57640836-1.0175284 2.87236216-1.9019507 3.96758956-.0916879.1151309-.1567545.2568306-.1686009.5549754.097611.0738167.30763.194837.6685024.3040786 1.8250155.5579423 3.3483464 1.213303 4.6527845 2.0015072.6803267.4103311 1.5440289.9918974 2.1918111 1.8420952.4703077.616969.6980741 1.293009.6803267 2.0044519v.10333c.0147747.1830139.0088737.3689947-.0236707.5549754h2.6354975c-.0059232 0 1.585447-1.1365417 1.487836-2.2022336zm-5.1556366 1.5173595c.0118242-.4959487-.1567766-.93876-.4673571-1.3432018-.4998794-.6583054-1.1742828-1.1424532-1.8989781-1.579353-1.3665542-.8265738-2.8632639-1.4229078-4.4161665-1.8952325-.6181884-.1889255-1.4020492-.5697432-1.410923-1.1365417-.0088737-.5077718.0680394-.9712403.4022905-1.3815714.8311579-1.0273223 1.3665543-2.2376806 1.7007833-3.56316994.2958058-1.18082284.3697461-2.37050191.1449524-3.57200404-.2248159-1.21624775-.7453932-2.24653688-1.6682611-2.97863686-.8341305-.664217-1.7392509-.97124023-2.6917126-.97124023-.3933946 0-.7956629.05313736-1.20385444.15350055-1.585447.3926408-2.64437127 1.47310046-3.15904756 3.17938537-.36974611 1.22807081-.36382289 2.485655-.11240796 3.73732765.32240476 1.5911761.95243953 2.4974559 1.95517091 3.7078143.03846762.0472258.08873729.0944738.10945745.1505558.34902595.9003905-.41411475 2.3114752-1.34880682 2.633244-.72469527.2509412-1.44346733.5225174-2.14449193.8236291-1.11808986.4782363-2.1947616 1.0214329-3.13537688 1.7594444-.59158933.4634685-1.159508.9623841-1.35177952 1.6767716-.09761102.3660721-.08281408.7586908-.09168781 1.1424532-.00295051.4870925.19227153.9269591.59453985 1.2575842.28690985.2361734.94948901.6199359.94948901.6199359l3.27735655-.0058894h14.47602485s1.591348-1.1365639 1.493737-2.1993111c-.0088737-.0708498-.0029505-.1446443-.0029505-.2154941z" fill="#fff" transform="translate(11 13)"/></g></svg>