<?xml version="1.0" encoding="UTF-8"?>
<svg width="265px" height="182px" viewBox="0 0 265 182" version="1.1" xmlns="http://www.w3.org/2000/svg" xmlns:xlink="http://www.w3.org/1999/xlink">
    <!-- Generator: Sketch 52.5 (67469) - http://www.bohemiancoding.com/sketch -->
    <title>白板切图</title>
    <desc>Created with Sketch.</desc>
    <g id="Page-1" stroke="none" stroke-width="1" fill="none" fill-rule="evenodd">
        <g id="撤销_hover-copy" transform="translate(10.000000, 10.000000) scale(-1, 1) translate(-10.000000, -10.000000) ">
            <g id="撤销">
                <rect id="Rectangle-9-Copy-5" x="0" y="0" width="20" height="20"></rect>
                <g fill-rule="nonzero">
                    <rect id="Rectangle-path" fill="#04B7A1" opacity="0" x="0" y="0" width="20" height="20"></rect>
                    <path d="M4.88721745,5.14692285 L12.0334701,5.14692285 C15.7668137,5.14692285 18.7932867,8.17339579 18.7932867,11.9067394 C18.7932867,15.6400829 15.7668137,18.6665559 12.0334701,18.6665559 L3.02038146,18.6665559 C2.39815753,18.6665559 1.89374537,18.1621437 1.89374537,17.5399198 C1.89374537,16.9176959 2.39815753,16.4132837 3.02038146,16.4132837 L12.0334701,16.4132837 C14.5223659,16.4132837 16.5400145,14.3956351 16.5400145,11.9067394 C16.5400145,9.41784365 14.5223659,7.40019502 12.0334701,7.40019502 L4.80722629,7.40019502 L6.11074424,8.70371297 C6.40341373,8.98679111 6.52057078,9.40575789 6.41718673,9.79958577 C6.31380267,10.1934137 6.00596616,10.5008151 5.61199245,10.603642 C5.21801873,10.7064689 4.79921807,10.5887194 4.51655418,10.2956498 L1.33042733,7.11064955 C1.11887094,6.89932838 1,6.61257415 1,6.31355452 C1,6.01453488 1.11887094,5.72778065 1.33042733,5.51645948 L4.51655418,2.33033264 C4.9564665,1.89010921 5.66995749,1.889857 6.11018092,2.32976932 C6.55040435,2.76968163 6.55065656,3.48317263 6.11074424,3.92339606 L4.88721745,5.14692285 Z" id="Shape" fill="#606060"></path>
                </g>
            </g>
        </g>
        <g id="撤销_hover-copy" opacity="0.5" transform="translate(10.000000, 88.000000) scale(-1, 1) translate(-10.000000, -88.000000) translate(0.000000, 78.000000)">
            <g id="撤销">
                <rect id="Rectangle-9-Copy-5" x="0" y="0" width="20" height="20"></rect>
                <g fill-rule="nonzero">
                    <rect id="Rectangle-path" fill="#04B7A1" opacity="0" x="0" y="0" width="20" height="20"></rect>
                    <path d="M4.88721745,5.14692285 L12.0334701,5.14692285 C15.7668137,5.14692285 18.7932867,8.17339579 18.7932867,11.9067394 C18.7932867,15.6400829 15.7668137,18.6665559 12.0334701,18.6665559 L3.02038146,18.6665559 C2.39815753,18.6665559 1.89374537,18.1621437 1.89374537,17.5399198 C1.89374537,16.9176959 2.39815753,16.4132837 3.02038146,16.4132837 L12.0334701,16.4132837 C14.5223659,16.4132837 16.5400145,14.3956351 16.5400145,11.9067394 C16.5400145,9.41784365 14.5223659,7.40019502 12.0334701,7.40019502 L4.80722629,7.40019502 L6.11074424,8.70371297 C6.40341373,8.98679111 6.52057078,9.40575789 6.41718673,9.79958577 C6.31380267,10.1934137 6.00596616,10.5008151 5.61199245,10.603642 C5.21801873,10.7064689 4.79921807,10.5887194 4.51655418,10.2956498 L1.33042733,7.11064955 C1.11887094,6.89932838 1,6.61257415 1,6.31355452 C1,6.01453488 1.11887094,5.72778065 1.33042733,5.51645948 L4.51655418,2.33033264 C4.9564665,1.89010921 5.66995749,1.889857 6.11018092,2.32976932 C6.55040435,2.76968163 6.55065656,3.48317263 6.11074424,3.92339606 L4.88721745,5.14692285 Z" id="Shape" fill="#606060"></path>
                </g>
            </g>
        </g>
        <g id="撤销_hover-copy" transform="translate(35.000000, 0.000000)">
            <g id="撤销">
                <rect id="Rectangle-9-Copy-5" x="0" y="0" width="20" height="20"></rect>
                <g fill-rule="nonzero">
                    <rect id="Rectangle-path" fill="#04B7A1" opacity="0" x="0" y="0" width="20" height="20"></rect>
                    <path d="M4.88721745,5.14692285 L12.0334701,5.14692285 C15.7668137,5.14692285 18.7932867,8.17339579 18.7932867,11.9067394 C18.7932867,15.6400829 15.7668137,18.6665559 12.0334701,18.6665559 L3.02038146,18.6665559 C2.39815753,18.6665559 1.89374537,18.1621437 1.89374537,17.5399198 C1.89374537,16.9176959 2.39815753,16.4132837 3.02038146,16.4132837 L12.0334701,16.4132837 C14.5223659,16.4132837 16.5400145,14.3956351 16.5400145,11.9067394 C16.5400145,9.41784365 14.5223659,7.40019502 12.0334701,7.40019502 L4.80722629,7.40019502 L6.11074424,8.70371297 C6.40341373,8.98679111 6.52057078,9.40575789 6.41718673,9.79958577 C6.31380267,10.1934137 6.00596616,10.5008151 5.61199245,10.603642 C5.21801873,10.7064689 4.79921807,10.5887194 4.51655418,10.2956498 L1.33042733,7.11064955 C1.11887094,6.89932838 1,6.61257415 1,6.31355452 C1,6.01453488 1.11887094,5.72778065 1.33042733,5.51645948 L4.51655418,2.33033264 C4.9564665,1.89010921 5.66995749,1.889857 6.11018092,2.32976932 C6.55040435,2.76968163 6.55065656,3.48317263 6.11074424,3.92339606 L4.88721745,5.14692285 Z" id="Shape" fill="#606060"></path>
                </g>
            </g>
        </g>
        <g id="撤销_hover-copy" opacity="0.5" transform="translate(35.000000, 78.000000)">
            <g id="撤销">
                <rect id="Rectangle-9-Copy-5" x="0" y="0" width="20" height="20"></rect>
                <g fill-rule="nonzero">
                    <rect id="Rectangle-path" fill="#04B7A1" opacity="0" x="0" y="0" width="20" height="20"></rect>
                    <path d="M4.88721745,5.14692285 L12.0334701,5.14692285 C15.7668137,5.14692285 18.7932867,8.17339579 18.7932867,11.9067394 C18.7932867,15.6400829 15.7668137,18.6665559 12.0334701,18.6665559 L3.02038146,18.6665559 C2.39815753,18.6665559 1.89374537,18.1621437 1.89374537,17.5399198 C1.89374537,16.9176959 2.39815753,16.4132837 3.02038146,16.4132837 L12.0334701,16.4132837 C14.5223659,16.4132837 16.5400145,14.3956351 16.5400145,11.9067394 C16.5400145,9.41784365 14.5223659,7.40019502 12.0334701,7.40019502 L4.80722629,7.40019502 L6.11074424,8.70371297 C6.40341373,8.98679111 6.52057078,9.40575789 6.41718673,9.79958577 C6.31380267,10.1934137 6.00596616,10.5008151 5.61199245,10.603642 C5.21801873,10.7064689 4.79921807,10.5887194 4.51655418,10.2956498 L1.33042733,7.11064955 C1.11887094,6.89932838 1,6.61257415 1,6.31355452 C1,6.01453488 1.11887094,5.72778065 1.33042733,5.51645948 L4.51655418,2.33033264 C4.9564665,1.89010921 5.66995749,1.889857 6.11018092,2.32976932 C6.55040435,2.76968163 6.55065656,3.48317263 6.11074424,3.92339606 L4.88721745,5.14692285 Z" id="Shape" fill="#606060"></path>
                </g>
            </g>
        </g>
        <g id="橡皮擦_hover-copy" transform="translate(70.000000, 0.000000)">
            <rect id="Rectangle-9-Copy-3" x="0" y="0" width="20" height="20"></rect>
            <rect id="Rectangle-path" fill="#FFFFFF" fill-rule="nonzero" opacity="0" x="0" y="0" width="20" height="20"></rect>
            <g id="Group" stroke-width="1" fill-rule="evenodd" transform="translate(1.000000, 0.000000)">
                <path d="M3.18839681,10 L1.26839681,18 L16.7316032,18 L14.8116032,10 L3.18839681,10 Z" id="Rectangle-15" stroke="#606060" stroke-width="2"></path>
                <path d="M9,0 L9,0 C9.55228475,-1.01453063e-16 10,0.44771525 10,1 L10,10 C10,10.5522847 9.55228475,11 9,11 L9,11 C8.44771525,11 8,10.5522847 8,10 L8,1 C8,0.44771525 8.44771525,1.01453063e-16 9,0 Z" id="Rectangle-16" fill="#606060"></path>
                <polygon id="Path-3-Copy" fill="#606060" points="8 17.6687012 9.60571289 15 9.60571289 17.6687012"></polygon>
                <polygon id="Path-3-Copy-2" fill="#606060" points="10 17.6687012 11.6057129 15 11.6057129 17.6687012"></polygon>
                <polygon id="Path-3-Copy-4" fill="#606060" points="12 17.6687012 13.6057129 15 13.6057129 17.6687012"></polygon>
                <polygon id="Path-3" fill="#606060" points="6 17.6687012 7.60571289 15 7.60571289 17.6687012"></polygon>
                <polygon id="Path-3-Copy-3" fill="#606060" points="3.39428711 17.6687012 5 15 5 17.6687012"></polygon>
            </g>
        </g>
        <g id="橡皮擦_hover-copy" opacity="0.5" transform="translate(70.000000, 78.000000)">
            <rect id="Rectangle-9-Copy-3" x="0" y="0" width="20" height="20"></rect>
            <rect id="Rectangle-path" fill="#FFFFFF" fill-rule="nonzero" opacity="0" x="0" y="0" width="20" height="20"></rect>
            <g id="Group" stroke-width="1" fill-rule="evenodd" transform="translate(1.000000, 0.000000)">
                <path d="M3.18839681,10 L1.26839681,18 L16.7316032,18 L14.8116032,10 L3.18839681,10 Z" id="Rectangle-15" stroke="#606060" stroke-width="2"></path>
                <path d="M9,0 L9,0 C9.55228475,-1.01453063e-16 10,0.44771525 10,1 L10,10 C10,10.5522847 9.55228475,11 9,11 L9,11 C8.44771525,11 8,10.5522847 8,10 L8,1 C8,0.44771525 8.44771525,1.01453063e-16 9,0 Z" id="Rectangle-16" fill="#606060"></path>
                <polygon id="Path-3-Copy" fill="#606060" points="8 17.6687012 9.60571289 15 9.60571289 17.6687012"></polygon>
                <polygon id="Path-3-Copy-2" fill="#606060" points="10 17.6687012 11.6057129 15 11.6057129 17.6687012"></polygon>
                <polygon id="Path-3-Copy-4" fill="#606060" points="12 17.6687012 13.6057129 15 13.6057129 17.6687012"></polygon>
                <polygon id="Path-3" fill="#606060" points="6 17.6687012 7.60571289 15 7.60571289 17.6687012"></polygon>
                <polygon id="Path-3-Copy-3" fill="#606060" points="3.39428711 17.6687012 5 15 5 17.6687012"></polygon>
            </g>
        </g>
        <g id="删除_hover-copy" transform="translate(105.000000, 0.000000)">
            <g id="Group" transform="translate(1.000000, 0.000000)">
                <rect id="Rectangle-2" stroke="#606060" fill="#D8D8D8" x="6.5" y="0.5" width="5" height="1" rx="0.5"></rect>
                <rect id="Rectangle" stroke="#606060" stroke-width="2" x="3" y="4" width="12" height="14" rx="2"></rect>
                <rect id="Rectangle-11" fill="#606060" x="0" y="3" width="18" height="2" rx="1"></rect>
                <rect id="Rectangle-12" stroke="#606060" fill="#D8D8D8" x="6.5" y="7.5" width="1" height="6" rx="0.5"></rect>
                <rect id="Rectangle-12-Copy" stroke="#606060" fill="#D8D8D8" x="10.5" y="7.5" width="1" height="6" rx="0.5"></rect>
            </g>
        </g>
        <g id="删除_hover-copy" opacity="0.5" transform="translate(105.000000, 78.000000)">
            <g id="Group" transform="translate(1.000000, 0.000000)">
                <rect id="Rectangle-2" stroke="#606060" fill="#D8D8D8" x="6.5" y="0.5" width="5" height="1" rx="0.5"></rect>
                <rect id="Rectangle" stroke="#606060" stroke-width="2" x="3" y="4" width="12" height="14" rx="2"></rect>
                <rect id="Rectangle-11" fill="#606060" x="0" y="3" width="18" height="2" rx="1"></rect>
                <rect id="Rectangle-12" stroke="#606060" fill="#D8D8D8" x="6.5" y="7.5" width="1" height="6" rx="0.5"></rect>
                <rect id="Rectangle-12-Copy" stroke="#606060" fill="#D8D8D8" x="10.5" y="7.5" width="1" height="6" rx="0.5"></rect>
            </g>
        </g>
        <g id="新建_hover-copy" transform="translate(175.000000, 0.000000)">
            <g id="新建">
                <rect id="Rectangle-9" x="0" y="0" width="20" height="20"></rect>
                <path d="M4,2 C3.44771525,2 3,2.44771525 3,3 L3,17 C3,17.5522847 3.44771525,18 4,18 L16,18 C16.5522847,18 17,17.5522847 17,17 L17,7.25882155 C17,7.00265393 16.901692,6.75625468 16.7253517,6.57044307 L12.6836142,2.31162152 C12.4947996,2.11266559 12.2325515,2 11.9582625,2 L4,2 Z" id="Rectangle-3" stroke="#606060" stroke-width="2"></path>
                <rect id="Rectangle-5" stroke="#606060" x="9.5" y="8.5" width="1" height="7" rx="0.5"></rect>
                <rect id="Rectangle-6" stroke="#606060" x="6.5" y="11.5" width="7" height="1" rx="0.5"></rect>
                <path d="M15.5857864,7 L12,3.41421356 L12,6 C12,6.55228475 12.4477153,7 13,7 L15.5857864,7 Z" id="Rectangle-4" stroke="#606060" stroke-width="2"></path>
            </g>
        </g>
        <g id="分页" transform="translate(140.000000, 0.000000)">
            <g id="新建">
                <rect id="Rectangle-9" x="0" y="0" width="20" height="20"></rect>
                <path d="M4,2 C3.44771525,2 3,2.44771525 3,3 L3,17 C3,17.5522847 3.44771525,18 4,18 L16,18 C16.5522847,18 17,17.5522847 17,17 L17,7.25882155 C17,7.00265393 16.901692,6.75625468 16.7253517,6.57044307 L12.6836142,2.31162152 C12.4947996,2.11266559 12.2325515,2 11.9582625,2 L4,2 Z" id="Rectangle-3" stroke="#606060" stroke-width="2"></path>
                <path d="M15.5857864,7 L12,3.41421356 L12,6 C12,6.55228475 12.4477153,7 13,7 L15.5857864,7 Z" id="Rectangle-4" stroke="#606060" stroke-width="2"></path>
            </g>
        </g>
        <g id="分页" opacity="0.5" transform="translate(140.000000, 78.000000)">
            <g id="新建">
                <rect id="Rectangle-9" x="0" y="0" width="20" height="20"></rect>
                <path d="M4,2 C3.44771525,2 3,2.44771525 3,3 L3,17 C3,17.5522847 3.44771525,18 4,18 L16,18 C16.5522847,18 17,17.5522847 17,17 L17,7.25882155 C17,7.00265393 16.901692,6.75625468 16.7253517,6.57044307 L12.6836142,2.31162152 C12.4947996,2.11266559 12.2325515,2 11.9582625,2 L4,2 Z" id="Rectangle-3" stroke="#606060" stroke-width="2"></path>
                <path d="M15.5857864,7 L12,3.41421356 L12,6 C12,6.55228475 12.4477153,7 13,7 L15.5857864,7 Z" id="Rectangle-4" stroke="#606060" stroke-width="2"></path>
            </g>
        </g>
        <g id="新建_hover-copy" opacity="0.5" transform="translate(175.000000, 78.000000)">
            <g id="新建">
                <rect id="Rectangle-9" x="0" y="0" width="20" height="20"></rect>
                <path d="M4,2 C3.44771525,2 3,2.44771525 3,3 L3,17 C3,17.5522847 3.44771525,18 4,18 L16,18 C16.5522847,18 17,17.5522847 17,17 L17,7.25882155 C17,7.00265393 16.901692,6.75625468 16.7253517,6.57044307 L12.6836142,2.31162152 C12.4947996,2.11266559 12.2325515,2 11.9582625,2 L4,2 Z" id="Rectangle-3" stroke="#606060" stroke-width="2"></path>
                <rect id="Rectangle-5" stroke="#606060" x="9.5" y="8.5" width="1" height="7" rx="0.5"></rect>
                <rect id="Rectangle-6" stroke="#606060" x="6.5" y="11.5" width="7" height="1" rx="0.5"></rect>
                <path d="M15.5857864,7 L12,3.41421356 L12,6 C12,6.55228475 12.4477153,7 13,7 L15.5857864,7 Z" id="Rectangle-4" stroke="#606060" stroke-width="2"></path>
            </g>
        </g>
        <g id="画笔_hover-copy" transform="translate(210.000000, 0.000000)">
            <g id="Group" transform="translate(2.000000, 1.000000)">
                <path d="M15.2486264,3.49140774 L13.7830361,2.11683655 C13.3849815,1.7435028 12.7611153,1.75825028 12.3811458,2.14997561 L1.29758856,13.5764473 C1.11854886,13.7610263 1.01749462,14.0074818 1.01541677,14.2646081 C1.00365985,15.7232989 1.00365985,15.7232989 1.0013472,16.0097046 C1.0013472,16.5619893 1.44906245,17.0097046 2.0013472,17.0097046 L3.42089184,17.0097046 C3.69586983,17.0097046 3.95871418,16.896474 4.14760656,16.696644 L15.2939247,4.90489565 C15.6717398,4.50206297 15.6514591,3.86922287 15.2486264,3.49140774 Z" id="Rectangle-8" stroke="#606060" stroke-width="2"></path>
                <rect id="Rectangle-10" fill="#606060" x="1" y="16" width="15" height="2" rx="1"></rect>
                <polygon id="Path-25" fill="#606060" points="10.5610352 3.73999023 13.5073242 6.57202148 15.7126465 4.08032227 12.8618164 1.64355469"></polygon>
            </g>
        </g>
        <g id="画笔_hover-copy" opacity="0.5" transform="translate(210.000000, 78.000000)">
            <g id="Group" transform="translate(2.000000, 1.000000)">
                <path d="M15.2486264,3.49140774 L13.7830361,2.11683655 C13.3849815,1.7435028 12.7611153,1.75825028 12.3811458,2.14997561 L1.29758856,13.5764473 C1.11854886,13.7610263 1.01749462,14.0074818 1.01541677,14.2646081 C1.00365985,15.7232989 1.00365985,15.7232989 1.0013472,16.0097046 C1.0013472,16.5619893 1.44906245,17.0097046 2.0013472,17.0097046 L3.42089184,17.0097046 C3.69586983,17.0097046 3.95871418,16.896474 4.14760656,16.696644 L15.2939247,4.90489565 C15.6717398,4.50206297 15.6514591,3.86922287 15.2486264,3.49140774 Z" id="Rectangle-8" stroke="#606060" stroke-width="2"></path>
                <rect id="Rectangle-10" fill="#606060" x="1" y="16" width="15" height="2" rx="1"></rect>
                <polygon id="Path-25" fill="#606060" points="10.5610352 3.73999023 13.5073242 6.57202148 15.7126465 4.08032227 12.8618164 1.64355469"></polygon>
            </g>
        </g>
        <g id="上传_hover" transform="translate(245.000000, 0.000000)">
            <polygon id="Path" points="0 0 20 0 20 20 0 20"></polygon>
            <g id="Group" transform="translate(1.000000, 2.000000)" fill="#606060" stroke="#606060" stroke-width="0.5">
                <path d="M14.2029322,12 C13.8841117,12 13.6256556,11.7385444 13.6256556,11.4160238 C13.6256556,11.0935033 13.8841117,10.8320477 14.2029322,10.8320477 L14.202932,10.8320477 C15.7120164,10.8320477 16.9353768,9.5944935 16.9353768,8.0678916 C16.9353769,6.54129353 15.7120203,5.30373545 14.202932,5.30373545 C14.085742,5.30532842 13.9687691,5.31443073 13.8527171,5.33098773 L13.2754405,5.40495808 L13.2061673,4.82098192 L13.2061674,4.82098299 C12.9451561,2.54852567 10.9124998,0.92037763 8.66611285,1.18441286 C6.90397518,1.39153414 5.47409825,2.72293581 5.12429001,4.482271 L5.00498604,5.01563566 L4.47004278,4.94166531 L4.47004302,4.94166534 C2.86955264,4.72042619 1.39481929,5.85358343 1.17611699,7.4726431 C0.95741597,9.0917079 2.07757324,10.5835563 3.67805849,10.8047968 C3.81170548,10.8232712 3.9464556,10.8323708 4.08134425,10.8320306 C4.40016478,10.8320306 4.65862087,11.0934862 4.65862087,11.4160068 C4.65862085,11.7385273 4.40016478,11.9999829 4.08134428,11.9999829 L4.0813441,11.9999829 C1.82727376,11.9999828 1.77635684e-15,10.1514898 1.77635684e-15,7.87127284 C1.00000002e-07,5.59104291 1.82728659,3.74256274 4.0813441,3.74256274 L4.1275262,3.74256274 L4.12752633,3.74256234 C4.98419799,0.94073696 7.92394174,-0.62807192 10.6936236,0.23854184 C12.4845453,0.79890821 13.8441553,2.28288144 14.2606517,4.13188065 L14.2606515,4.13188064 C16.4058325,4.21439853 18.0787191,6.04047852 17.9971386,8.2105554 C17.9190729,10.2873738 16.2568455,11.944095 14.2029167,11.9921969 L14.2029322,12 Z" id="Path"></path>
                <path d="M11.8764557,10.0055827 C11.7241334,10.005435 11.5780997,9.9386674 11.4704583,9.8199584 L9.2183245,7.34356552 L6.96619071,9.8199584 C6.73404923,10.0582147 6.37050765,10.0440805 6.15419598,9.7883884 C5.94860134,9.545364 5.94860134,9.1686118 6.15419598,8.9255873 L8.54421501,6.29732094 C8.92156049,5.90089302 9.5150874,5.90089302 9.892429,6.29732099 L12.282448,8.9298057 C12.5066746,9.1770865 12.5064486,9.5777594 12.2819428,9.8247336 C12.1743431,9.943102 12.0285256,10.0096535 11.876451,10.0098011 L11.8764557,10.0055827 Z" id="Path"></path>
                <path d="M9.5745248,13.9904424 C9.257224,13.9904424 9,13.7071231 9,13.3576325 L9,7.63280994 C9,7.28331924 9.257224,7 9.5745247,7 C9.8918254,7.00000005 10.1490495,7.28331924 10.1490495,7.63280986 L10.1490495,13.3576324 C10.1490495,13.707123 9.8918254,13.9904423 9.5745247,13.9904423 Z" id="Path"></path>
            </g>
        </g>
        <g id="画笔_hover-copy-3" transform="translate(210.000000, 162.000000)">
            <g id="Group" transform="translate(2.000000, 1.000000)">
                <path d="M15.2486264,3.49140774 L13.7830361,2.11683655 C13.3849815,1.7435028 12.7611153,1.75825028 12.3811458,2.14997561 L1.29758856,13.5764473 C1.11854886,13.7610263 1.01749462,14.0074818 1.01541677,14.2646081 C1.00365985,15.7232989 1.00365985,15.7232989 1.0013472,16.0097046 C1.0013472,16.5619893 1.44906245,17.0097046 2.0013472,17.0097046 L3.42089184,17.0097046 C3.69586983,17.0097046 3.95871418,16.896474 4.14760656,16.696644 L15.2939247,4.90489565 C15.6717398,4.50206297 15.6514591,3.86922287 15.2486264,3.49140774 Z" id="Rectangle-8" stroke="#21C194" stroke-width="2"></path>
                <rect id="Rectangle-10" fill="#21C194" x="1" y="16" width="15" height="2" rx="1"></rect>
                <polygon id="Path-25" fill="#21C194" points="10.5610352 3.73999023 13.5073242 6.57202148 15.7126465 4.08032227 12.8618164 1.64355469"></polygon>
            </g>
        </g>
        <g id="新建_hover-copy-2" transform="translate(175.000000, 162.000000)">
            <g id="新建-copy">
                <rect id="Rectangle-9" x="0" y="0" width="20" height="20"></rect>
                <path d="M4,2 C3.44771525,2 3,2.44771525 3,3 L3,17 C3,17.5522847 3.44771525,18 4,18 L16,18 C16.5522847,18 17,17.5522847 17,17 L17,7.25882155 C17,7.00265393 16.901692,6.75625468 16.7253517,6.57044307 L12.6836142,2.31162152 C12.4947996,2.11266559 12.2325515,2 11.9582625,2 L4,2 Z" id="Rectangle-3" stroke="#21C194" stroke-width="2"></path>
                <rect id="Rectangle-5" stroke="#21C194" x="9.5" y="8.5" width="1" height="7" rx="0.5"></rect>
                <rect id="Rectangle-6" stroke="#21C194" x="6.5" y="11.5" width="7" height="1" rx="0.5"></rect>
                <path d="M15.5857864,7 L12,3.41421356 L12,6 C12,6.55228475 12.4477153,7 13,7 L15.5857864,7 Z" id="Rectangle-4" stroke="#21C194" stroke-width="2"></path>
            </g>
        </g>
        <g id="分页-copy" transform="translate(140.000000, 162.000000)">
            <g id="新建">
                <rect id="Rectangle-9" x="0" y="0" width="20" height="20"></rect>
                <path d="M4,2 C3.44771525,2 3,2.44771525 3,3 L3,17 C3,17.5522847 3.44771525,18 4,18 L16,18 C16.5522847,18 17,17.5522847 17,17 L17,7.25882155 C17,7.00265393 16.901692,6.75625468 16.7253517,6.57044307 L12.6836142,2.31162152 C12.4947996,2.11266559 12.2325515,2 11.9582625,2 L4,2 Z" id="Rectangle-3" stroke="#21C194" stroke-width="2"></path>
                <path d="M15.5857864,7 L12,3.41421356 L12,6 C12,6.55228475 12.4477153,7 13,7 L15.5857864,7 Z" id="Rectangle-4" stroke="#21C194" stroke-width="2"></path>
            </g>
        </g>
        <g id="删除_hover-copy-3" transform="translate(105.000000, 162.000000)">
            <g id="Group" transform="translate(1.000000, 0.000000)">
                <rect id="Rectangle-2" stroke="#21C194" fill="#D8D8D8" x="6.5" y="0.5" width="5" height="1" rx="0.5"></rect>
                <rect id="Rectangle" stroke="#21C194" stroke-width="2" x="3" y="4" width="12" height="14" rx="2"></rect>
                <rect id="Rectangle-11" fill="#21C194" x="0" y="3" width="18" height="2" rx="1"></rect>
                <rect id="Rectangle-12" stroke="#21C194" fill="#D8D8D8" x="6.5" y="7.5" width="1" height="6" rx="0.5"></rect>
                <rect id="Rectangle-12-Copy" stroke="#21C194" fill="#D8D8D8" x="10.5" y="7.5" width="1" height="6" rx="0.5"></rect>
            </g>
        </g>
        <g id="橡皮擦_hover-copy-3" transform="translate(70.000000, 162.000000)">
            <rect id="Rectangle-9-Copy-3" x="0" y="0" width="20" height="20"></rect>
            <rect id="Rectangle-path" fill="#FFFFFF" fill-rule="nonzero" opacity="0" x="0" y="0" width="20" height="20"></rect>
            <g id="Group" stroke-width="1" fill-rule="evenodd" transform="translate(1.000000, 0.000000)">
                <path d="M3.18839681,10 L1.26839681,18 L16.7316032,18 L14.8116032,10 L3.18839681,10 Z" id="Rectangle-15" stroke="#21C194" stroke-width="2"></path>
                <path d="M9,0 L9,0 C9.55228475,-1.01453063e-16 10,0.44771525 10,1 L10,10 C10,10.5522847 9.55228475,11 9,11 L9,11 C8.44771525,11 8,10.5522847 8,10 L8,1 C8,0.44771525 8.44771525,1.01453063e-16 9,0 Z" id="Rectangle-16" fill="#21C194"></path>
                <polygon id="Path-3-Copy" fill="#21C194" points="8 17.6687012 9.60571289 15 9.60571289 17.6687012"></polygon>
                <polygon id="Path-3-Copy-2" fill="#21C194" points="10 17.6687012 11.6057129 15 11.6057129 17.6687012"></polygon>
                <polygon id="Path-3-Copy-4" fill="#21C194" points="12 17.6687012 13.6057129 15 13.6057129 17.6687012"></polygon>
                <polygon id="Path-3" fill="#21C194" points="6 17.6687012 7.60571289 15 7.60571289 17.6687012"></polygon>
                <polygon id="Path-3-Copy-3" fill="#21C194" points="3.39428711 17.6687012 5 15 5 17.6687012"></polygon>
            </g>
        </g>
        <g id="撤销_hover-copy-3" transform="translate(35.000000, 162.000000)">
            <g id="撤销">
                <rect id="Rectangle-9-Copy-5" x="0" y="0" width="20" height="20"></rect>
                <g fill-rule="nonzero">
                    <rect id="Rectangle-path" fill="#04B7A1" opacity="0" x="0" y="0" width="20" height="20"></rect>
                    <path d="M4.88721745,5.14692285 L12.0334701,5.14692285 C15.7668137,5.14692285 18.7932867,8.17339579 18.7932867,11.9067394 C18.7932867,15.6400829 15.7668137,18.6665559 12.0334701,18.6665559 L3.02038146,18.6665559 C2.39815753,18.6665559 1.89374537,18.1621437 1.89374537,17.5399198 C1.89374537,16.9176959 2.39815753,16.4132837 3.02038146,16.4132837 L12.0334701,16.4132837 C14.5223659,16.4132837 16.5400145,14.3956351 16.5400145,11.9067394 C16.5400145,9.41784365 14.5223659,7.40019502 12.0334701,7.40019502 L4.80722629,7.40019502 L6.11074424,8.70371297 C6.40341373,8.98679111 6.52057078,9.40575789 6.41718673,9.79958577 C6.31380267,10.1934137 6.00596616,10.5008151 5.61199245,10.603642 C5.21801873,10.7064689 4.79921807,10.5887194 4.51655418,10.2956498 L1.33042733,7.11064955 C1.11887094,6.89932838 1,6.61257415 1,6.31355452 C1,6.01453488 1.11887094,5.72778065 1.33042733,5.51645948 L4.51655418,2.33033264 C4.9564665,1.89010921 5.66995749,1.889857 6.11018092,2.32976932 C6.55040435,2.76968163 6.55065656,3.48317263 6.11074424,3.92339606 L4.88721745,5.14692285 Z" id="Shape" fill="#21C194"></path>
                </g>
            </g>
        </g>
        <g id="撤销_hover-copy-3" transform="translate(10.000000, 172.000000) scale(-1, 1) translate(-10.000000, -172.000000) translate(0.000000, 162.000000)">
            <g id="撤销">
                <rect id="Rectangle-9-Copy-5" x="0" y="0" width="20" height="20"></rect>
                <g fill-rule="nonzero">
                    <rect id="Rectangle-path" fill="#04B7A1" opacity="0" x="0" y="0" width="20" height="20"></rect>
                    <path d="M4.88721745,5.14692285 L12.0334701,5.14692285 C15.7668137,5.14692285 18.7932867,8.17339579 18.7932867,11.9067394 C18.7932867,15.6400829 15.7668137,18.6665559 12.0334701,18.6665559 L3.02038146,18.6665559 C2.39815753,18.6665559 1.89374537,18.1621437 1.89374537,17.5399198 C1.89374537,16.9176959 2.39815753,16.4132837 3.02038146,16.4132837 L12.0334701,16.4132837 C14.5223659,16.4132837 16.5400145,14.3956351 16.5400145,11.9067394 C16.5400145,9.41784365 14.5223659,7.40019502 12.0334701,7.40019502 L4.80722629,7.40019502 L6.11074424,8.70371297 C6.40341373,8.98679111 6.52057078,9.40575789 6.41718673,9.79958577 C6.31380267,10.1934137 6.00596616,10.5008151 5.61199245,10.603642 C5.21801873,10.7064689 4.79921807,10.5887194 4.51655418,10.2956498 L1.33042733,7.11064955 C1.11887094,6.89932838 1,6.61257415 1,6.31355452 C1,6.01453488 1.11887094,5.72778065 1.33042733,5.51645948 L4.51655418,2.33033264 C4.9564665,1.89010921 5.66995749,1.889857 6.11018092,2.32976932 C6.55040435,2.76968163 6.55065656,3.48317263 6.11074424,3.92339606 L4.88721745,5.14692285 Z" id="Shape" fill="#21C194"></path>
                </g>
            </g>
        </g>
        <g id="上传_hover" transform="translate(245.000000, 162.000000)">
            <polygon id="Path" points="0 0 20 0 20 20 0 20"></polygon>
            <g id="Group" transform="translate(1.000000, 2.000000)" fill="#21C194" stroke="#21C194" stroke-width="0.5">
                <path d="M14.2029322,12 C13.8841117,12 13.6256556,11.7385444 13.6256556,11.4160238 C13.6256556,11.0935033 13.8841117,10.8320477 14.2029322,10.8320477 C15.7120164,10.8320477 16.9353768,9.5944935 16.9353768,8.0678916 C16.9353769,6.54129353 15.7120203,5.30373545 14.202932,5.30373545 C14.085742,5.30532842 13.9687691,5.31443073 13.8527171,5.33098773 L13.2754405,5.40495808 L13.2061673,4.82098192 C12.9451561,2.54852567 10.9124998,0.92037763 8.66611285,1.18441286 C6.90397518,1.39153414 5.47409825,2.72293581 5.12429001,4.482271 L5.00498604,5.01563566 L4.47004278,4.94166531 C2.86955264,4.72042619 1.39481929,5.85358343 1.17611699,7.4726431 C0.95741597,9.0917079 2.07757324,10.5835563 3.67805849,10.8047968 C3.81170548,10.8232712 3.9464556,10.8323708 4.08134425,10.8320306 C4.40016478,10.8320306 4.65862087,11.0934862 4.65862087,11.4160068 C4.65862085,11.7385273 4.40016478,11.9999829 4.08134428,11.9999829 C1.82727376,11.9999828 1.77635684e-15,10.1514898 1.77635684e-15,7.87127284 C1.00000002e-07,5.59104291 1.82728659,3.74256274 4.0813441,3.74256274 L4.1275262,3.74256274 C4.98419799,0.94073696 7.92394174,-0.62807192 10.6936236,0.23854184 C12.4845453,0.79890821 13.8441553,2.28288144 14.2606517,4.13188065 C16.4058325,4.21439853 18.0787191,6.04047852 17.9971386,8.2105554 C17.9190729,10.2873738 16.2568455,11.944095 14.2029167,11.9921969 L14.2029322,12 Z" id="Path"></path>
                <path d="M11.8764557,10.0055827 C11.7241334,10.005435 11.5780997,9.9386674 11.4704583,9.8199584 L9.2183245,7.34356552 L6.96619071,9.8199584 C6.73404923,10.0582147 6.37050765,10.0440805 6.15419598,9.7883884 C5.94860134,9.545364 5.94860134,9.1686118 6.15419598,8.9255873 L8.54421501,6.29732094 C8.92156049,5.90089302 9.5150874,5.90089302 9.892429,6.29732099 L12.282448,8.9298057 C12.5066746,9.1770865 12.5064486,9.5777594 12.2819428,9.8247336 C12.1743431,9.943102 12.0285256,10.0096535 11.876451,10.0098011 L11.8764557,10.0055827 Z" id="Path"></path>
                <path d="M9.5745248,13.9904424 C9.257224,13.9904424 9,13.7071231 9,13.3576325 L9,7.63280994 C9,7.28331924 9.257224,7 9.5745247,7 C9.8918254,7.00000005 10.1490495,7.28331924 10.1490495,7.63280986 L10.1490495,13.3576324 C10.1490495,13.707123 9.8918254,13.9904423 9.5745247,13.9904423 Z" id="Path"></path>
            </g>
        </g>
        <g id="上传_hover" transform="translate(245.000000, 78.000000)">
            <polygon id="Path" points="0 0 20 0 20 20 0 20"></polygon>
            <g id="Group" transform="translate(1.000000, 2.000000)" fill="#606060" stroke="#606060" stroke-width="0.5">
                <path d="M14.2029322,12 C13.8841117,12 13.6256556,11.7385444 13.6256556,11.4160238 C13.6256556,11.0935033 13.8841117,10.8320477 14.2029322,10.8320477 C15.7120164,10.8320477 16.9353768,9.5944935 16.9353768,8.0678916 C16.9353769,6.54129353 15.7120203,5.30373545 14.202932,5.30373545 C14.085742,5.30532842 13.9687691,5.31443073 13.8527171,5.33098773 L13.2754405,5.40495808 L13.2061673,4.82098192 C12.9451561,2.54852567 10.9124998,0.92037763 8.66611285,1.18441286 C6.90397518,1.39153414 5.47409825,2.72293581 5.12429001,4.482271 L5.00498604,5.01563566 L4.47004278,4.94166531 C2.86955264,4.72042619 1.39481929,5.85358343 1.17611699,7.4726431 C0.95741597,9.0917079 2.07757324,10.5835563 3.67805849,10.8047968 C3.81170548,10.8232712 3.9464556,10.8323708 4.08134425,10.8320306 C4.40016478,10.8320306 4.65862087,11.0934862 4.65862087,11.4160068 C4.65862085,11.7385273 4.40016478,11.9999829 4.08134428,11.9999829 C1.82727376,11.9999828 1.77635684e-15,10.1514898 1.77635684e-15,7.87127284 C1.00000002e-07,5.59104291 1.82728659,3.74256274 4.0813441,3.74256274 L4.1275262,3.74256274 C4.98419799,0.94073696 7.92394174,-0.62807192 10.6936236,0.23854184 C12.4845453,0.79890821 13.8441553,2.28288144 14.2606517,4.13188065 C16.4058325,4.21439853 18.0787191,6.04047852 17.9971386,8.2105554 C17.9190729,10.2873738 16.2568455,11.944095 14.2029167,11.9921969 L14.2029322,12 Z" id="Path" stroke-opacity="0.4" fill-opacity="0.4"></path>
                <path d="M11.8764557,10.0055827 C11.7241334,10.005435 11.5780997,9.9386674 11.4704583,9.8199584 L9.2183245,7.34356552 L6.96619071,9.8199584 C6.73404923,10.0582147 6.37050765,10.0440805 6.15419598,9.7883884 C5.94860134,9.545364 5.94860134,9.1686118 6.15419598,8.9255873 L8.54421501,6.29732094 C8.92156049,5.90089302 9.5150874,5.90089302 9.892429,6.29732099 L12.282448,8.9298057 C12.5066746,9.1770865 12.5064486,9.5777594 12.2819428,9.8247336 C12.1743431,9.943102 12.0285256,10.0096535 11.876451,10.0098011 L11.8764557,10.0055827 Z" id="Path" stroke-opacity="0.3" fill-opacity="0.3"></path>
                <path d="M9,13.3576325 L9,7.63280994 C9,7.28331924 9.257224,7 9.5745247,7 C9.8918254,7.00000005 10.1490495,7.28331924 10.1490495,7.63280986 L10.1490495,13.3576324 C10.1490495,13.707123 9.8918254,13.9904423 9.5745247,13.9904423 C9.257224,13.9904424 9,13.7071231 9,13.3576325 Z" id="Path" stroke-opacity="0.3" fill-opacity="0.4"></path>
            </g>
        </g>
    </g>
</svg>