<?xml version="1.0" encoding="UTF-8"?>
<svg width="20px" height="20px" viewBox="0 0 20 20" version="1.1" xmlns="http://www.w3.org/2000/svg" xmlns:xlink="http://www.w3.org/1999/xlink">
    <!-- Generator: Sketch 58 (84663) - https://sketch.com -->
    <title>移除人员@2x</title>
    <desc>Created with Sketch.</desc>
    <g id="移除人员" stroke="none" stroke-width="1" fill="none" fill-rule="evenodd">
        <g id="移除icon" fill-rule="nonzero">
            <rect id="矩形" x="0" y="0" width="20" height="20"></rect>
            <path d="M10,17.714285 C14.2602168,17.714285 17.7142832,14.2602186 17.7142832,10.0000018 C17.7142832,5.73978496 14.2602168,2.28571855 10,2.28571855 C5.7397832,2.28571855 2.2857168,5.73978496 2.2857168,10.0000018 C2.2857168,14.2602186 5.7397832,17.714285 10,17.714285 Z M10,19 C5.02943359,19 1,14.9705664 1,10 C1,5.02943359 5.02943359,1 10,1 C14.9705664,1 19,5.02943359 19,10 C19,14.9705664 14.9705664,19 10,19 Z M6.14284961,10.0412109 L13.8571328,10.0412109 L6.14284961,10.0412109 Z M6.14284961,9.35714336 L13.8571328,9.35714336 L13.8571328,9.35714336 C14.2121723,9.35714336 14.499993,9.64496055 14.499993,10 C14.499993,10.3550395 14.2121723,10.6428566 13.8571328,10.6428566 L6.14284964,10.6428566 L6.14284963,10.6428566 C5.78781018,10.6428566 5.49999299,10.3550395 5.49999299,10 C5.49999299,9.64496055 5.78781018,9.35714336 6.14284963,9.35714336 L6.14284961,9.35714336 Z" id="形状" fill="#000000"></path>
        </g>
    </g>
</svg>